<svg width="16" height="16" viewBox="0 0 16 16" fill="none" xmlns="http://www.w3.org/2000/svg">
<path d="M4.36662 15.1667C5.11996 15.1667 5.91329 14.9867 6.73329 14.64C7.53329 14.3 8.33996 13.8333 9.12663 13.2667C9.90663 12.6933 10.66 12.0533 11.3733 11.3533C12.08 10.64 12.72 9.88668 13.2866 9.11334C13.86 8.31334 14.32 7.51334 14.6466 6.74001C14.9933 5.91334 15.1666 5.11334 15.1666 4.36001C15.1666 3.84001 15.0733 3.34668 14.8933 2.88668C14.7066 2.41334 14.4066 1.97334 14 1.59334C13.4866 1.08668 12.9 0.833344 12.2733 0.833344C12.0133 0.833344 11.7466 0.893344 11.52 1.00001C11.26 1.12001 11.04 1.30001 10.88 1.54001L9.33329 3.72001C9.19329 3.91334 9.08663 4.10001 9.01329 4.28668C8.92663 4.48668 8.87996 4.68668 8.87996 4.88001C8.87996 5.13334 8.95329 5.38001 9.09329 5.61334C9.19329 5.79334 9.34663 5.98668 9.53996 6.18001L9.99329 6.65334C9.98663 6.67334 9.97996 6.68668 9.97329 6.70001C9.89329 6.84001 9.73329 7.08001 9.42663 7.44001C9.09996 7.81334 8.79329 8.15334 8.48663 8.46668C8.09329 8.85334 7.76663 9.16001 7.45996 9.41334C7.07996 9.73334 6.83329 9.89334 6.68663 9.96668L6.69996 10L6.21329 9.52001C6.00663 9.31334 5.80663 9.16001 5.61329 9.06001C5.24663 8.83334 4.77996 8.79334 4.31329 8.98668C4.13996 9.06001 3.95329 9.16001 3.75329 9.30001L1.53996 10.8733C1.29329 11.04 1.11329 11.2533 1.00663 11.5067C0.906626 11.76 0.85996 11.9933 0.85996 12.2267C0.85996 12.5467 0.933292 12.8667 1.07329 13.1667C1.21329 13.4667 1.38663 13.7267 1.60663 13.9667C1.98663 14.3867 2.39996 14.6867 2.87996 14.88C3.33996 15.0667 3.83996 15.1667 4.36662 15.1667ZM12.2733 1.83334C12.64 1.83334 12.98 1.99334 13.3066 2.31334C13.6133 2.60001 13.8266 2.91334 13.96 3.25334C14.1 3.60001 14.1666 3.96668 14.1666 4.36001C14.1666 4.98001 14.02 5.65334 13.7266 6.34668C13.4266 7.05334 13.0066 7.78668 12.4733 8.52001C11.94 9.25334 11.3333 9.96668 10.6666 10.64C9.99996 11.3 9.27996 11.9133 8.53996 12.4533C7.81996 12.98 7.07996 13.4067 6.34663 13.7133C5.20663 14.2 4.13996 14.3133 3.25996 13.9467C2.91996 13.8067 2.61996 13.5933 2.34663 13.2867C2.19329 13.12 2.07329 12.94 1.97329 12.7267C1.89329 12.56 1.85329 12.3867 1.85329 12.2133C1.85329 12.1067 1.87329 12 1.92663 11.88C1.94662 11.84 1.98663 11.7667 2.11329 11.68L4.32663 10.1067C4.45996 10.0133 4.57996 9.94668 4.69329 9.90001C4.83996 9.84001 4.89996 9.78001 5.12663 9.92001C5.25996 9.98668 5.37996 10.0867 5.51329 10.22L6.01996 10.72C6.27996 10.9733 6.67996 11.0333 6.98663 10.92L7.16663 10.84C7.43996 10.6933 7.75996 10.4667 8.11329 10.1667C8.43329 9.89334 8.77996 9.57334 9.19996 9.16001C9.52663 8.82668 9.85329 8.47334 10.1933 8.08001C10.5066 7.71334 10.7333 7.40001 10.8733 7.14001L10.9533 6.94001C10.9933 6.78668 11.0066 6.70001 11.0066 6.60668C11.0066 6.36668 10.92 6.15334 10.7533 5.98668L10.2533 5.46668C10.12 5.33334 10.02 5.20668 9.95329 5.09334C9.89996 5.00668 9.87996 4.93334 9.87996 4.86668C9.87996 4.81334 9.89996 4.73334 9.93329 4.65334C9.97996 4.54668 10.0533 4.42668 10.1466 4.30001L11.6933 2.11334C11.76 2.02001 11.84 1.95334 11.94 1.90668C12.0466 1.86001 12.16 1.83334 12.2733 1.83334ZM6.69996 10.0067L6.80663 10.46L6.62663 9.99334C6.65996 9.98668 6.68663 9.99334 6.69996 10.0067Z" fill="#FCBD02"/>
<path d="M3.66667 6.49999C3.94 6.49999 4.16667 6.27332 4.16667 5.99999C4.16667 5.75999 4.40667 5.25999 4.80667 4.83332C5.2 4.41332 5.63333 4.16666 6 4.16666C6.27333 4.16666 6.5 3.93999 6.5 3.66666C6.5 3.39332 6.27333 3.16666 6 3.16666C5.35333 3.16666 4.67333 3.51332 4.08 4.14666C3.52667 4.73999 3.16667 5.46666 3.16667 5.99999C3.16667 6.27332 3.39333 6.49999 3.66667 6.49999Z" fill="#FCBD02"/>
<path d="M1.33333 6.50001C1.60667 6.50001 1.83333 6.27334 1.83333 6.00001C1.83333 3.70001 3.7 1.83334 6 1.83334C6.27333 1.83334 6.5 1.60668 6.5 1.33334C6.5 1.06001 6.27333 0.833344 6 0.833344C3.15333 0.833344 0.833333 3.15334 0.833333 6.00001C0.833333 6.27334 1.06 6.50001 1.33333 6.50001Z" fill="#FCBD02"/>
</svg>
