<svg width="15" height="21" viewBox="0 0 15 21" fill="none" xmlns="http://www.w3.org/2000/svg">
<path d="M7.75 0C8.16421 0 8.5 0.335786 8.5 0.75V2.0791C9.78266 2.24351 10.9489 2.65763 11.873 3.26074C13.0831 4.05049 13.9579 5.22859 13.958 6.63867C13.958 7.05289 13.6222 7.38867 13.208 7.38867C12.7939 7.3885 12.458 7.05278 12.458 6.63867C12.4579 5.90128 11.9997 5.13517 11.0537 4.51758C10.1141 3.9043 8.77109 3.5 7.25 3.5C5.72891 3.5 4.38592 3.9043 3.44629 4.51758C2.50033 5.13517 2.04208 5.90128 2.04199 6.63867C2.04199 7.08068 2.12514 7.43066 2.27539 7.71289C2.42373 7.99142 2.65889 8.24601 3.0293 8.4668C3.79964 8.92584 5.12227 9.22266 7.25 9.22266C9.45049 9.22266 11.2405 9.49896 12.5 10.2256C13.1448 10.5976 13.6568 11.0912 14.002 11.7217C14.3452 12.3489 14.5 13.069 14.5 13.8613C14.4999 15.5785 13.5708 16.7805 12.1982 17.5098C11.1714 18.0554 9.8852 18.3457 8.5 18.4512V19.75C8.5 20.1642 8.16421 20.5 7.75 20.5C7.33579 20.5 7 20.1642 7 19.75V18.4961C5.18917 18.4577 3.52228 18.005 2.26855 17.2549C0.972659 16.4796 9.73624e-05 15.3031 0 13.8613C0 13.4471 0.335786 13.1113 0.75 13.1113C1.16421 13.1113 1.5 13.4471 1.5 13.8613C1.5001 14.5671 1.9826 15.3357 3.03906 15.9678C4.08036 16.5907 5.56743 17 7.25 17C8.98722 17 10.4719 16.7277 11.4941 16.1846C12.474 15.6639 12.9999 14.9216 13 13.8613C13 13.2649 12.8839 12.8037 12.6855 12.4414C12.489 12.0826 12.1883 11.7773 11.75 11.5244C10.8428 11.0011 9.38265 10.7227 7.25 10.7227C5.0444 10.7227 3.38721 10.4256 2.26172 9.75488C1.68453 9.41087 1.24285 8.96562 0.951172 8.41797C0.661543 7.87398 0.541992 7.27029 0.541992 6.63867C0.542082 5.22859 1.41695 4.05049 2.62695 3.26074C3.78628 2.50412 5.32669 2.04565 7 2.00391V0.75C7 0.335786 7.33579 0 7.75 0Z" fill="#F55157"/>
</svg>
