<svg width="100%" height="100%" viewBox="0 0 10 14" fill="none" xmlns="http://www.w3.org/2000/svg">
<path d="M5.16602 0C5.44216 0 5.66602 0.223858 5.66602 0.5V1.38574C6.52129 1.49533 7.29887 1.77167 7.91504 2.17383C8.72172 2.70035 9.30566 3.48569 9.30566 4.42578C9.30557 4.7017 9.08155 4.92555 8.80566 4.92578C8.52958 4.92578 8.30576 4.70184 8.30566 4.42578C8.30566 3.93405 7.99911 3.42255 7.36816 3.01074C6.74176 2.60203 5.84685 2.33301 4.83301 2.33301C3.81916 2.33301 2.92425 2.60203 2.29785 3.01074C1.6669 3.42255 1.36035 3.93405 1.36035 4.42578C1.36037 4.72037 1.41645 4.95349 1.5166 5.1416C1.61552 5.32734 1.77248 5.49731 2.01953 5.64453C2.53312 5.9505 3.4147 6.14746 4.83301 6.14746C6.3 6.14746 7.49336 6.33199 8.33301 6.81641C8.76293 7.06444 9.10389 7.39408 9.33398 7.81445C9.56275 8.23253 9.66599 8.71213 9.66602 9.24023C9.66602 10.3851 9.04691 11.1866 8.13184 11.6729C7.44721 12.0366 6.58962 12.2305 5.66602 12.3008V13.166C5.66602 13.4422 5.44216 13.666 5.16602 13.666C4.89002 13.6658 4.66602 13.442 4.66602 13.166V12.3271C3.45895 12.3015 2.34745 12.0029 1.51172 11.5029C0.647865 10.986 0 10.2014 0 9.24023C9.8091e-05 8.96418 0.223918 8.74023 0.5 8.74023C0.775932 8.74041 0.999902 8.96428 1 9.24023C1 9.71078 1.32112 10.2231 2.02539 10.6445C2.7196 11.0599 3.71118 11.333 4.83301 11.333C5.99087 11.333 6.98064 11.152 7.66211 10.79C8.31539 10.4429 8.66602 9.9472 8.66602 9.24023C8.66599 8.8427 8.58921 8.53543 8.45703 8.29395C8.32602 8.05465 8.12525 7.85122 7.83301 7.68262C7.2282 7.33376 6.25477 7.14746 4.83301 7.14746C3.36263 7.14746 2.25814 6.95003 1.50781 6.50293C1.12301 6.27363 0.828273 5.97735 0.633789 5.6123C0.440635 5.24963 0.360374 4.84689 0.360352 4.42578C0.360352 3.48569 0.944293 2.70035 1.75098 2.17383C2.52378 1.66943 3.55058 1.36578 4.66602 1.33789V0.5C4.66602 0.223966 4.89002 0.00017579 5.16602 0Z" fill="currentColor"/>
</svg>
