<svg width="40" height="40" viewBox="0 0 40 40" fill="none" xmlns="http://www.w3.org/2000/svg">
<rect x="0.25" y="0.25" width="39.5" height="39.5" rx="11.75" stroke="white" stroke-width="0.5"/>
<path fill-rule="evenodd" clip-rule="evenodd" d="M17.1969 17.0372C17.1969 14.6869 19.214 12.8335 21.6363 12.8335H23.8788C24.0518 12.8335 24.2231 12.8414 24.378 12.8734C24.5369 12.9062 24.7121 12.971 24.8596 13.1098C25.1502 13.3829 25.1666 13.7856 25.1666 14.0742V15.5557C25.1666 15.8444 25.1502 16.247 24.8596 16.5202C24.7121 16.6589 24.5369 16.7237 24.378 16.7566C24.2231 16.7886 24.0518 16.7965 23.8788 16.7965H21.6363C21.4478 16.7965 21.3485 16.9329 21.3485 17.0372V18.3891H22.9555C23.1772 18.3891 23.389 18.4 23.5725 18.4409C23.7558 18.4817 23.9723 18.5658 24.1291 18.7612C24.2899 18.9617 24.3207 19.1947 24.3113 19.387C24.3022 19.5744 24.2528 19.7766 24.1914 19.9787L23.8538 21.0898C23.7843 21.3184 23.6804 21.604 23.4203 21.7885C23.1677 21.9676 22.8636 21.9816 22.6178 21.9816H21.3485V25.9261C21.3485 26.2147 21.332 26.6174 21.0415 26.8906C20.8939 27.0293 20.7188 27.0941 20.5598 27.1269C20.4049 27.1589 20.2336 27.1668 20.0606 27.1668H18.4848C18.3118 27.1668 18.1405 27.1589 17.9856 27.1269C17.8267 27.0941 17.6515 27.0293 17.504 26.8906C17.2134 26.6174 17.1969 26.2147 17.1969 25.9261V21.9816H16.1212C15.9481 21.9816 15.7769 21.9737 15.622 21.9417C15.463 21.9089 15.2879 21.8441 15.1403 21.7054C14.8498 21.4322 14.8333 21.0296 14.8333 20.7409V19.6298C14.8333 19.3411 14.8498 18.9385 15.1403 18.6653C15.2879 18.5266 15.463 18.4618 15.622 18.4289C15.7769 18.397 15.9481 18.3891 16.1212 18.3891H17.1969V17.0372ZM21.6363 13.8335C19.7073 13.8335 18.1969 15.2965 18.1969 17.0372V18.8891C18.1969 19.1652 17.9731 19.3891 17.6969 19.3891H16.1212C15.9866 19.3891 15.9006 19.3953 15.8451 19.4044C15.8384 19.4503 15.8333 19.5211 15.8333 19.6298V20.7409C15.8333 20.8496 15.8384 20.9204 15.8451 20.9663C15.9006 20.9754 15.9866 20.9816 16.1212 20.9816H17.6969C17.9731 20.9816 18.1969 21.2055 18.1969 21.4816V25.9261C18.1969 26.0348 18.202 26.1056 18.2088 26.1515C18.2642 26.1606 18.3502 26.1668 18.4848 26.1668H20.0606C20.1952 26.1668 20.2812 26.1606 20.3366 26.1515C20.3434 26.1056 20.3485 26.0348 20.3485 25.9261V21.4816C20.3485 21.2055 20.5723 20.9816 20.8485 20.9816H22.6178C22.7308 20.9816 22.7958 20.9761 22.8347 20.9689C22.8493 20.9397 22.8697 20.8888 22.897 20.799L23.2346 19.6879C23.2729 19.5619 23.2942 19.4717 23.3046 19.4077C23.2284 19.3963 23.117 19.3891 22.9555 19.3891H20.8485C20.5723 19.3891 20.3485 19.1652 20.3485 18.8891V17.0372C20.3485 16.3233 20.9546 15.7965 21.6363 15.7965H23.8788C24.0134 15.7965 24.0994 15.7902 24.1548 15.7811C24.1616 15.7352 24.1666 15.6644 24.1666 15.5557V14.0742C24.1666 13.9655 24.1616 13.8947 24.1548 13.8489C24.0994 13.8398 24.0134 13.8335 23.8788 13.8335H21.6363Z" fill="white"/>
</svg>
