<svg width="40" height="40" viewBox="0 0 40 40" fill="none" xmlns="http://www.w3.org/2000/svg">
<path d="M30.2101 23.7815C27.4299 23.7815 25.1681 26.0433 25.1681 28.8235C25.1681 31.6038 27.4299 33.8656 30.2101 33.8656C32.9908 33.8656 35.2522 31.6038 35.2522 28.8235C35.2522 26.0433 32.9904 23.7815 30.2101 23.7815ZM30.2101 31.3445C28.8198 31.3445 27.6891 30.2138 27.6891 28.8235C27.6891 27.4332 28.8198 26.3025 30.2101 26.3025C31.6004 26.3025 32.7311 27.4332 32.7311 28.8235C32.7311 30.2139 31.6004 31.3445 30.2101 31.3445Z" fill="#FCBD02"/>
<path d="M12.9832 23.7815C10.203 23.7815 7.94116 26.0433 7.94116 28.8235C7.94116 31.6038 10.203 33.8656 12.9832 33.8656C15.7634 33.8656 18.0252 31.6038 18.0252 28.8235C18.0252 26.0433 15.7634 23.7815 12.9832 23.7815ZM12.9832 31.3445C11.5929 31.3445 10.4622 30.2138 10.4622 28.8235C10.4622 27.4332 11.5929 26.3025 12.9832 26.3025C14.3731 26.3025 15.5042 27.4332 15.5042 28.8235C15.5042 30.2139 14.3735 31.3445 12.9832 31.3445Z" fill="#FCBD02"/>
<path d="M33.605 9.34941C33.3907 8.92379 32.955 8.65527 32.4785 8.65527H25.8398V11.1763H31.7012L35.1335 18.0032L37.3865 16.8704L33.605 9.34941Z" fill="#FCBD02"/>
<path d="M26.4286 27.605H16.8907V30.126H26.4286V27.605Z" fill="#FCBD02"/>
<path d="M9.20047 27.605H4.83078C4.13453 27.605 3.57031 28.1693 3.57031 28.8654C3.57031 29.5617 4.13461 30.1259 4.83078 30.1259H9.20055C9.8968 30.1259 10.461 29.5616 10.461 28.8654C10.461 28.1692 9.89672 27.605 9.20047 27.605Z" fill="#FCBD02"/>
<path d="M39.7341 19.899L37.2548 16.7057C37.0166 16.3981 36.6489 16.2183 36.2594 16.2183H27.0997V7.39475C27.0997 6.6985 26.5354 6.13428 25.8392 6.13428H4.83078C4.13453 6.13428 3.57031 6.69857 3.57031 7.39475C3.57031 8.09092 4.13461 8.65521 4.83078 8.65521H24.5787V17.4787C24.5787 18.175 25.143 18.7392 25.8391 18.7392H35.6421L37.4778 21.1039V27.6047H33.9904C33.2941 27.6047 32.7299 28.169 32.7299 28.8652C32.7299 29.5615 33.2942 30.1257 33.9904 30.1257H38.7383C39.4345 30.1257 39.9987 29.5614 39.9988 28.8652V20.6721C39.9988 20.3922 39.9055 20.12 39.7341 19.899Z" fill="#FCBD02"/>
<path d="M9.11767 21.2185H3.31931C2.62306 21.2185 2.05884 21.7828 2.05884 22.479C2.05884 23.1752 2.62313 23.7394 3.31931 23.7394H9.11759C9.81384 23.7394 10.3781 23.1751 10.3781 22.479C10.3781 21.7828 9.81384 21.2185 9.11767 21.2185Z" fill="#FCBD02"/>
<path d="M12.0168 16.2605H1.26047C0.564297 16.2605 0 16.8248 0 17.521C0 18.2173 0.564297 18.7815 1.26047 18.7815H12.0168C12.713 18.7815 13.2773 18.2172 13.2773 17.521C13.2773 16.8249 12.713 16.2605 12.0168 16.2605Z" fill="#FCBD02"/>
<path d="M14.0756 11.3025H3.31931C2.62306 11.3025 2.05884 11.8668 2.05884 12.563C2.05884 13.2592 2.62313 13.8234 3.31931 13.8234H14.0756C14.7719 13.8234 15.3361 13.2591 15.3361 12.563C15.3362 11.8668 14.7719 11.3025 14.0756 11.3025Z" fill="#FCBD02"/>
</svg>
