<svg width="40" height="40" viewBox="0 0 40 40" fill="none" xmlns="http://www.w3.org/2000/svg">
<rect x="0.25" y="0.25" width="39.5" height="39.5" rx="11.75" stroke="white" stroke-width="0.5"/>
<path d="M20.0381 26.833C21.4984 26.833 22.6454 26.8333 23.541 26.7129C24.4588 26.5895 25.1876 26.3319 25.7598 25.7598C26.3319 25.1876 26.5895 24.4588 26.7129 23.541C26.8333 22.6454 26.833 21.4984 26.833 20.0381V19.9619C26.833 18.5016 26.8333 17.3546 26.7129 16.459C26.5895 15.5412 26.3319 14.8124 25.7598 14.2402C25.1876 13.6681 24.4588 13.4105 23.541 13.2871C22.6454 13.1667 21.4984 13.167 20.0381 13.167H19.9619C18.5016 13.167 17.3546 13.1667 16.459 13.2871C15.5412 13.4105 14.8124 13.6681 14.2402 14.2402C13.6681 14.8124 13.4105 15.5412 13.2871 16.459C13.1667 17.3546 13.167 18.5016 13.167 19.9619V20.0381C13.167 21.4984 13.1667 22.6454 13.2871 23.541C13.4105 24.4588 13.6681 25.1876 14.2402 25.7598C14.8124 26.3319 15.5412 26.5895 16.459 26.7129C17.3546 26.8333 18.5016 26.833 19.9619 26.833H20.0381ZM20 25.833C18.4931 25.833 17.4131 25.8321 16.5918 25.7217C15.785 25.6132 15.3026 25.4081 14.9473 25.0527C14.5919 24.6974 14.3868 24.215 14.2783 23.4082C14.1679 22.5869 14.167 21.5069 14.167 20C14.167 18.4931 14.1679 17.4131 14.2783 16.5918C14.3868 15.785 14.5919 15.3026 14.9473 14.9473C15.3026 14.5919 15.785 14.3868 16.5918 14.2783C17.4131 14.1679 18.4931 14.167 20 14.167C21.5069 14.167 22.5869 14.1679 23.4082 14.2783C24.215 14.3868 24.6974 14.5919 25.0527 14.9473C25.4081 15.3026 25.6132 15.785 25.7217 16.5918C25.8321 17.4131 25.833 18.4931 25.833 20C25.833 21.5069 25.8321 22.5869 25.7217 23.4082C25.6132 24.215 25.4081 24.6974 25.0527 25.0527C24.6974 25.4081 24.215 25.6132 23.4082 25.7217C22.5869 25.8321 21.5069 25.833 20 25.833ZM23.6719 17C24.0401 17 24.3389 16.7012 24.3389 16.333C24.3387 15.965 24.04 15.667 23.6719 15.667H23.666C23.2979 15.667 22.9992 15.965 22.999 16.333C22.999 16.7012 23.2978 17 23.666 17H23.6719ZM20 23.5C21.933 23.5 23.5 21.933 23.5 20C23.5 18.067 21.933 16.5 20 16.5C18.067 16.5 16.5 18.067 16.5 20C16.5 21.933 18.067 23.5 20 23.5ZM20 22.5C18.6193 22.5 17.5 21.3807 17.5 20C17.5 18.6193 18.6193 17.5 20 17.5C21.3807 17.5 22.5 18.6193 22.5 20C22.5 21.3807 21.3807 22.5 20 22.5Z" fill="white"/>
</svg>
