<svg width="16" height="16" viewBox="0 0 16 16" fill="none" xmlns="http://www.w3.org/2000/svg">
<path d="M13.433 13.8886H2.5672C1.91691 13.8877 1.29352 13.629 0.833739 13.1691C0.373963 12.7093 0.11535 12.0858 0.114624 11.4355V4.56424C0.11535 3.914 0.373978 3.2906 0.833767 2.83081C1.29356 2.37102 1.91696 2.11239 2.5672 2.11166H13.433C14.0833 2.11239 14.7068 2.371 15.1666 2.83078C15.6265 3.29056 15.8852 3.91395 15.8861 4.56424V11.4355C15.8853 12.0859 15.6266 12.7094 15.1668 13.1693C14.7069 13.6292 14.0834 13.8879 13.433 13.8886ZM2.5672 3.25452C2.21995 3.25488 1.88703 3.39299 1.64149 3.63853C1.39595 3.88407 1.25784 4.21699 1.25748 4.56424V11.4355C1.25772 11.7829 1.39577 12.1159 1.64133 12.3616C1.88688 12.6072 2.21987 12.7454 2.5672 12.7457H13.433C13.7804 12.7454 14.1134 12.6072 14.3591 12.3616C14.6047 12.116 14.7428 11.7829 14.7432 11.4355V4.56424C14.7427 4.21695 14.6045 3.88403 14.3589 3.6385C14.1133 3.39297 13.7803 3.25488 13.433 3.25452H2.5672Z" fill="#FCBD02"/>
<path d="M7.99319 9.53816C7.51374 9.54288 7.04669 9.38586 6.66747 9.09245L0.556389 4.2225C0.437875 4.128 0.361758 3.99028 0.344783 3.83965C0.327809 3.68902 0.371366 3.53782 0.465874 3.4193C0.560383 3.30079 0.698099 3.22467 0.848728 3.2077C0.999358 3.19072 1.15056 3.23428 1.26907 3.32879L7.37833 8.19873C7.5588 8.32674 7.77473 8.39523 7.99599 8.39466C8.21725 8.39408 8.43281 8.32447 8.61262 8.19553L14.6464 3.33108C14.7644 3.23596 14.9152 3.19158 15.0658 3.2077C15.2165 3.22382 15.3545 3.29911 15.4496 3.41702C15.5448 3.53493 15.5891 3.68579 15.573 3.83642C15.5569 3.98705 15.4816 4.1251 15.3637 4.22022L9.3317 9.08467C8.94987 9.38325 8.47788 9.54316 7.99319 9.53816Z" fill="#FCBD02"/>
</svg>
