<svg width="64" height="64" viewBox="0 0 64 64" fill="none" xmlns="http://www.w3.org/2000/svg">
<rect width="64" height="64" rx="32" fill="#FCBD02" fill-opacity="0.5"/>
<path d="M42.8659 43.777H21.1343C19.8337 43.7753 18.5869 43.2578 17.6674 42.3381C16.7478 41.4184 16.2306 40.1715 16.2291 38.8709V25.1283C16.2306 23.8278 16.7478 22.581 17.6674 21.6614C18.587 20.7419 19.8338 20.2246 21.1343 20.2231H42.8659C44.1665 20.2246 45.4134 20.7418 46.3331 21.6614C47.2528 22.5809 47.7703 23.8277 47.772 25.1283V38.8709C47.7705 40.1716 47.2532 41.4187 46.3334 42.3384C45.4137 43.2582 44.1666 43.7755 42.8659 43.777ZM21.1343 22.5089C20.4398 22.5096 19.7739 22.7858 19.2829 23.2769C18.7918 23.768 18.5156 24.4338 18.5148 25.1283V38.8709C18.5153 39.5656 18.7914 40.2316 19.2825 40.7229C19.7736 41.2142 20.4396 41.4905 21.1343 41.4913H42.8659C43.5607 41.4905 44.2267 41.2142 44.718 40.723C45.2092 40.2317 45.4855 39.5657 45.4863 38.8709V25.1283C45.4853 24.4337 45.2089 23.7679 44.7177 23.2768C44.2264 22.7858 43.5605 22.5096 42.8659 22.5089H21.1343Z" fill="#FCBD02"/>
<path d="M31.9863 35.0763C31.0274 35.0858 30.0933 34.7717 29.3348 34.1849L17.1127 24.445C16.8756 24.256 16.7234 23.9806 16.6894 23.6793C16.6555 23.378 16.7426 23.0756 16.9316 22.8386C17.1206 22.6016 17.3961 22.4493 17.6973 22.4154C17.9986 22.3814 18.301 22.4686 18.538 22.6576L30.7565 32.3975C31.1175 32.6535 31.5493 32.7905 31.9919 32.7893C32.4344 32.7882 32.8655 32.6489 33.2251 32.3911L45.2928 22.6622C45.5286 22.4719 45.8303 22.3832 46.1316 22.4154C46.4328 22.4476 46.7089 22.5982 46.8992 22.834C47.0894 23.0699 47.1782 23.3716 47.1459 23.6728C47.1137 23.9741 46.9631 24.2502 46.7273 24.4404L34.6633 34.1693C33.8996 34.7665 32.9556 35.0863 31.9863 35.0763Z" fill="#FCBD02"/>
</svg>
