<svg width="100%" height="100%" viewBox="0 0 12 12" fill="none" xmlns="http://www.w3.org/2000/svg">
<path d="M11.3281 5.32812C11.5156 5.32812 11.6719 5.39583 11.7969 5.53125C11.9323 5.65625 12 5.8125 12 6C12 6.1875 11.9323 6.34896 11.7969 6.48438C11.6719 6.60938 11.5156 6.67188 11.3281 6.67188H6.67188V11.3281C6.67188 11.5156 6.60417 11.6771 6.46875 11.8125C6.34375 11.9375 6.1875 12 6 12C5.8125 12 5.65104 11.9375 5.51562 11.8125C5.39062 11.6771 5.32812 11.5156 5.32812 11.3281V6.67188H0.671875C0.484375 6.67188 0.322917 6.60938 0.1875 6.48438C0.0625 6.34896 0 6.1875 0 6C0 5.8125 0.0625 5.65625 0.1875 5.53125C0.322917 5.39583 0.484375 5.32812 0.671875 5.32812H5.32812V0.671875C5.32812 0.484375 5.39062 0.328125 5.51562 0.203125C5.65104 0.0677083 5.8125 0 6 0C6.1875 0 6.34375 0.0677083 6.46875 0.203125C6.60417 0.328125 6.67188 0.484375 6.67188 0.671875V5.32812H11.3281Z" fill="currentColor"/>
</svg>
