<svg width="16" height="16" viewBox="0 0 16 16" fill="none" xmlns="http://www.w3.org/2000/svg">
<path d="M8.03711 0.833008C9.10549 0.832996 9.95823 0.832947 10.627 0.922852C11.3178 1.01573 11.8868 1.21299 12.3369 1.66309C12.787 2.11318 12.9843 2.6822 13.0771 3.37305C13.1671 4.04177 13.167 4.8945 13.167 5.96289V10.0371C13.167 11.1055 13.1671 11.9582 13.0771 12.627C12.9843 13.3178 12.787 13.8868 12.3369 14.3369C11.8868 14.787 11.3178 14.9843 10.627 15.0771C9.95823 15.1671 9.1055 15.167 8.03711 15.167H7.96289C6.8945 15.167 6.04177 15.1671 5.37305 15.0771C4.6822 14.9843 4.11318 14.787 3.66309 14.3369C3.21299 13.8868 3.01573 13.3178 2.92285 12.627C2.83295 11.9582 2.833 11.1055 2.83301 10.0371V5.96289C2.833 4.89451 2.83295 4.04177 2.92285 3.37305C3.01573 2.6822 3.21299 2.11318 3.66309 1.66309C4.11318 1.21299 4.6822 1.01573 5.37305 0.922852C6.04177 0.832947 6.89451 0.832996 7.96289 0.833008H8.03711ZM10.4111 1.9043C10.358 2.22167 10.3106 2.50001 10.2441 2.72656C10.1648 2.99696 10.0454 3.25083 9.81641 3.4541C9.5794 3.66437 9.30605 3.75254 9.01367 3.79297C8.73795 3.83108 8.39751 3.83203 8.00098 3.83203C7.60446 3.83203 7.264 3.83108 6.98828 3.79297C6.69593 3.75253 6.42253 3.66436 6.18555 3.4541C5.95666 3.2509 5.83816 2.99686 5.75879 2.72656C5.69229 2.49997 5.64301 2.22174 5.58984 1.9043C5.56161 1.90765 5.53327 1.91038 5.50586 1.91406C4.92617 1.99205 4.60338 2.13685 4.37012 2.37012C4.13685 2.60338 3.99205 2.92617 3.91406 3.50586C3.83416 4.1002 3.83301 4.88592 3.83301 6V10C3.83301 11.1141 3.83416 11.8998 3.91406 12.4941C3.99205 13.0738 4.13685 13.3966 4.37012 13.6299C4.60338 13.8632 4.92617 14.008 5.50586 14.0859C6.1002 14.1658 6.88592 14.167 8 14.167C9.11408 14.167 9.8998 14.1658 10.4941 14.0859C11.0738 14.008 11.3966 13.8632 11.6299 13.6299C11.8632 13.3966 12.008 13.0738 12.0859 12.4941C12.1658 11.8998 12.167 11.1141 12.167 10V6C12.167 4.88592 12.1658 4.1002 12.0859 3.50586C12.008 2.92617 11.8631 2.60338 11.6299 2.37012C11.3966 2.13685 11.0738 1.99205 10.4941 1.91406C10.467 1.91042 10.439 1.90762 10.4111 1.9043ZM8.66699 12.167C8.94299 12.1672 9.16699 12.391 9.16699 12.667C9.16682 12.9429 8.94288 13.1668 8.66699 13.167H7.33301C7.05712 13.1668 6.83318 12.9429 6.83301 12.667C6.83301 12.391 7.05702 12.1672 7.33301 12.167H8.66699ZM8 1.83301C7.45897 1.83301 6.99548 1.83336 6.59375 1.84277C6.6393 2.10956 6.67481 2.29785 6.71777 2.44434C6.76876 2.61808 6.81423 2.67463 6.84961 2.70605C6.88852 2.74058 6.94912 2.77838 7.125 2.80273C7.3179 2.8294 7.58162 2.83203 8.00098 2.83203C8.42035 2.83203 8.68405 2.8294 8.87695 2.80273C9.05289 2.77838 9.11343 2.74058 9.15234 2.70605C9.18773 2.67464 9.23317 2.61814 9.28418 2.44434C9.32713 2.29788 9.36169 2.10948 9.40723 1.84277C9.00527 1.83334 8.54147 1.83301 8 1.83301Z" fill="white"/>
</svg>
