<svg width="40" height="40" viewBox="0 0 40 40" fill="none" xmlns="http://www.w3.org/2000/svg">
<rect x="0.25" y="0.25" width="39.5" height="39.5" rx="11.75" stroke="white" stroke-width="0.5"/>
<path d="M20.0004 27.167C20.7946 27.1669 21.357 26.8053 21.8451 26.4922C21.9208 26.4436 21.995 26.3963 22.0677 26.3516C22.6172 26.0134 23.2679 25.6855 24.4447 25.6855C24.6739 25.6854 24.8734 25.529 24.9291 25.3066C25.1119 24.5755 25.2723 24.231 25.4926 24.0107C25.7128 23.7906 26.0575 23.631 26.7885 23.4482C26.9958 23.3962 27.1475 23.2179 27.1654 23.0049C27.1709 22.9398 27.1614 22.8763 27.1429 22.8164C27.2135 22.5929 27.1191 22.3438 26.9056 22.2275C25.6486 21.5428 25.2234 20.9768 25.1722 20.4971C25.119 19.9969 25.4364 19.3278 26.3881 18.3486C26.5804 18.1507 26.5761 17.8341 26.3783 17.6416C26.1804 17.4492 25.8638 17.4536 25.6713 17.6514C25.0109 18.3307 24.5011 19.0015 24.2826 19.6777C24.1416 18.9647 24.1166 18.0887 24.1166 16.9492C24.1164 14.6762 22.2734 12.8332 20.0004 12.833C17.7271 12.833 15.8844 14.676 15.8842 16.9492C15.8842 18.0888 15.8572 18.9646 15.7162 19.6777C15.4976 19.0016 14.9897 18.3306 14.3295 17.6514C14.137 17.4534 13.8205 17.4492 13.6224 17.6416C13.4245 17.834 13.4194 18.1506 13.6117 18.3486C14.5634 19.3278 14.8808 19.9969 14.8275 20.4971C14.7764 20.9769 14.3513 21.5427 13.0941 22.2275C12.8807 22.3438 12.7855 22.5931 12.8558 22.8164C12.8375 22.8762 12.8299 22.9399 12.8353 23.0049C12.8533 23.218 13.0048 23.3964 13.2123 23.4482C13.9429 23.6309 14.287 23.7907 14.5072 24.0107C14.7275 24.231 14.8879 24.5755 15.0707 25.3066C15.1264 25.5291 15.3267 25.6855 15.556 25.6855C16.7324 25.6856 17.3826 26.0135 17.932 26.3516C18.0047 26.3963 18.079 26.4437 18.1547 26.4922C18.6429 26.8054 19.206 27.167 20.0004 27.167ZM20.0004 26.167C19.5169 26.167 19.2139 25.9762 18.7201 25.665C18.6381 25.6134 18.5507 25.558 18.4564 25.5C17.8642 25.1355 17.1265 24.7635 15.9418 24.6963C15.7749 24.1207 15.5694 23.6589 15.2142 23.3037C15.0367 23.1262 14.8325 22.9857 14.601 22.8691C15.4869 22.3215 16.059 21.6792 16.4037 20.8633C16.8509 19.8045 16.8842 18.5116 16.8842 16.9492C16.8844 15.2283 18.2794 13.833 20.0004 13.833C21.7212 13.8332 23.1164 15.2284 23.1166 16.9492C23.1166 18.5116 23.1489 19.8045 23.5961 20.8633C23.9407 21.6793 24.5129 22.3215 25.3988 22.8691C25.1672 22.9857 24.9631 23.1262 24.7855 23.3037C24.4303 23.6589 24.2248 24.1207 24.058 24.6963C22.8731 24.7635 22.1356 25.1355 21.5433 25.5C21.4491 25.558 21.3616 25.6134 21.2797 25.665C20.7861 25.9761 20.4836 26.1669 20.0004 26.167Z" fill="white"/>
</svg>
