<svg width="40" height="40" viewBox="0 0 40 40" fill="none" xmlns="http://www.w3.org/2000/svg">
<rect x="0.25" y="0.25" width="39.5" height="39.5" rx="11.75" stroke="white" stroke-width="0.5"/>
<path fill-rule="evenodd" clip-rule="evenodd" d="M13.5548 13.7724C13.6403 13.6052 13.8122 13.5 14 13.5H17.3333C17.4939 13.5 17.6447 13.5771 17.7387 13.7073L21.0293 18.2636L25.6464 13.6464C25.8417 13.4512 26.1583 13.4512 26.3536 13.6464C26.5488 13.8417 26.5488 14.1583 26.3536 14.3536L21.6224 19.0847L26.4053 25.7073C26.5153 25.8595 26.5307 26.0604 26.4452 26.2276C26.3597 26.3948 26.1878 26.5 26 26.5H22.6667C22.5061 26.5 22.3553 26.4229 22.2613 26.2927L18.9707 21.7364L14.3536 26.3536C14.1583 26.5488 13.8417 26.5488 13.6464 26.3536C13.4512 26.1583 13.4512 25.8417 13.6464 25.6464L18.3776 20.9153L13.5947 14.2927C13.4847 14.1405 13.4693 13.9396 13.5548 13.7724ZM14.9779 14.5L22.9223 25.5H25.0221L17.0777 14.5H14.9779Z" fill="white"/>
</svg>
