<svg width="16" height="16" viewBox="0 0 16 16" fill="none" xmlns="http://www.w3.org/2000/svg">
<path d="M7.99997 15.167C11.958 15.167 15.167 11.958 15.167 8C15.167 4.04196 11.958 0.833008 7.99997 0.833008C4.04194 0.833016 0.832977 4.04196 0.832977 8C0.832978 8.98724 1.03347 9.92897 1.39548 10.7861C1.49045 11.011 1.55389 11.1635 1.59665 11.2803C1.64013 11.399 1.64665 11.442 1.64743 11.4531C1.65176 11.5157 1.63636 11.601 1.52829 12.0049L0.850555 14.5371C0.804401 14.7096 0.853199 14.8942 0.979462 15.0205C1.10573 15.1468 1.29036 15.1956 1.46286 15.1494L3.99509 14.4717C4.39901 14.3636 4.48425 14.3482 4.54684 14.3525C4.558 14.3533 4.60091 14.3598 4.7197 14.4033C4.83646 14.4461 4.98897 14.5095 5.21384 14.6045C6.071 14.9665 7.01273 15.167 7.99997 15.167ZM7.99997 14.167C7.14875 14.167 6.33879 13.9946 5.60251 13.6836L5.59079 13.6787C5.38081 13.59 5.20668 13.516 5.06442 13.4639C4.92185 13.4117 4.77136 13.3653 4.61618 13.3545C4.36407 13.337 4.10218 13.4075 3.80173 13.4883C3.78024 13.4941 3.7582 13.5 3.7363 13.5059L2.04001 13.96L2.49411 12.2637C2.49997 12.2418 2.50591 12.2197 2.51169 12.1982C2.59251 11.8978 2.66292 11.6359 2.64548 11.3838C2.63469 11.2286 2.58831 11.0781 2.5361 10.9355C2.48399 10.7933 2.40994 10.6192 2.32126 10.4092L2.31638 10.3975C2.00541 9.66118 1.83298 8.85122 1.83298 8C1.83298 4.59425 4.59422 1.83302 7.99997 1.83301C11.4057 1.83301 14.167 4.59424 14.167 8C14.167 11.4058 11.4057 14.167 7.99997 14.167ZM9.87692 11.7578C10.1299 11.8152 10.3669 11.8688 10.6777 11.8037C10.9044 11.7562 11.115 11.6354 11.2783 11.5049C11.4416 11.3743 11.6049 11.1951 11.7011 10.9844C11.8336 10.6944 11.8335 10.3997 11.833 10.0801C11.8329 10.0596 11.833 10.0383 11.833 10.0176C11.833 9.87062 11.8286 9.62303 11.7334 9.39453C11.6195 9.12155 11.3849 8.89654 11.0175 8.83887L11.0136 8.83789C10.5582 8.76651 10.2117 8.71237 9.96677 8.67676C9.84416 8.65894 9.74169 8.64576 9.66208 8.63672C9.59667 8.62929 9.50681 8.61962 9.43161 8.62402C9.10525 8.64313 8.84555 8.77531 8.6445 8.91309C8.51656 9.00076 8.37786 9.1186 8.26852 9.21094C8.22558 9.24721 8.18655 9.27948 8.15524 9.30469L7.70114 9.6709C7.44634 9.48032 7.19989 9.26731 6.96579 9.0332C6.73185 8.79922 6.51953 8.55347 6.32907 8.29883L6.69528 7.84375C6.72046 7.81249 6.75287 7.77427 6.78903 7.73145C6.88137 7.62212 6.99921 7.48341 7.08688 7.35547C7.22464 7.15445 7.35681 6.89465 7.37595 6.56836C7.38035 6.49305 7.37068 6.40235 7.36325 6.33691C7.35421 6.25738 7.341 6.15555 7.32321 6.0332C7.2876 5.78822 7.2325 5.44193 7.1611 4.98633V4.98242C7.10345 4.61489 6.8776 4.38042 6.60446 4.2666C6.37614 4.17157 6.12928 4.167 5.98239 4.16699C5.9617 4.16699 5.94038 4.16703 5.91989 4.16699C5.60036 4.16645 5.3055 4.16556 5.01559 4.29785C4.80482 4.39413 4.6247 4.55831 4.49411 4.72168C4.36368 4.88494 4.24374 5.09573 4.19626 5.32227C4.13117 5.63313 4.18474 5.87002 4.24216 6.12305C4.2448 6.13468 4.24733 6.1465 4.24997 6.1582C4.53962 7.44087 5.21714 8.69846 6.25876 9.74023C7.30061 10.7821 8.55894 11.4593 9.84177 11.749C9.85347 11.7517 9.86529 11.7552 9.87692 11.7578ZM5.76559 7.40332C5.51754 6.92651 5.33728 6.43228 5.22556 5.9375C5.1594 5.64452 5.15782 5.60831 5.17477 5.52734C5.18105 5.49744 5.21051 5.42685 5.27536 5.3457C5.34017 5.26463 5.40279 5.22079 5.43063 5.20801C5.4994 5.1766 5.56588 5.16699 5.98239 5.16699C6.04765 5.167 6.10079 5.16854 6.14548 5.17383C6.15871 5.1754 6.17016 5.17698 6.17966 5.17871C6.24849 5.61793 6.29932 5.9462 6.33298 6.17773C6.35033 6.29713 6.36284 6.38641 6.37009 6.4502C6.37513 6.49457 6.37645 6.5161 6.37692 6.52148C6.37005 6.59654 6.33827 6.67829 6.26169 6.79004C6.20202 6.8771 6.14333 6.94628 6.07028 7.03223C6.02559 7.08482 5.97489 7.14364 5.91599 7.2168L5.76559 7.40332ZM10.4726 10.8242C10.3917 10.8412 10.3553 10.8405 10.0625 10.7744C9.56754 10.6627 9.07262 10.4816 8.59567 10.2334L8.78317 10.084C8.85633 10.0251 8.91515 9.97438 8.96774 9.92969C9.0537 9.85664 9.12286 9.79796 9.20993 9.73828C9.32175 9.66166 9.40339 9.6299 9.47849 9.62305C9.48388 9.62352 9.5054 9.62484 9.54977 9.62988C9.61358 9.63713 9.70286 9.64964 9.82224 9.66699C10.0537 9.70064 10.3813 9.75152 10.8203 9.82031C10.822 9.82984 10.8246 9.84121 10.8261 9.85449C10.8314 9.8992 10.833 9.95228 10.833 10.0176C10.833 10.4341 10.8234 10.5006 10.792 10.5693C10.7791 10.5972 10.7353 10.6599 10.6543 10.7246C10.5734 10.7893 10.5027 10.8178 10.4726 10.8242Z" fill="white"/>
</svg>
