<svg width="40" height="40" viewBox="0 0 40 40" fill="none" xmlns="http://www.w3.org/2000/svg">
<rect x="0.25" y="0.25" width="39.5" height="39.5" rx="11.75" stroke="white" stroke-width="0.5"/>
<path d="M19.9999 26.167C21.2388 26.167 22.4292 26.0438 23.535 25.8184C23.5634 25.8126 23.5921 25.8074 23.62 25.8018C24.8831 25.5447 25.7248 25.3729 26.4501 24.4404C27.1674 23.5181 27.1675 22.4486 27.1669 20.792V19.208C27.1675 17.5514 27.1674 16.4819 26.4501 15.5596C25.7248 14.6271 24.8831 14.4553 23.62 14.1982C23.5921 14.1926 23.5634 14.1874 23.535 14.1816C22.4292 13.9562 21.2388 13.833 19.9999 13.833C18.7609 13.833 17.5706 13.9562 16.4647 14.1816C16.4363 14.1874 16.4078 14.1925 16.3798 14.1982C15.1167 14.4553 14.2749 14.6271 13.5497 15.5596C12.8324 16.4819 12.8323 17.5515 12.8329 19.208V20.792C12.8323 22.4485 12.8324 23.5181 13.5497 24.4404C14.2749 25.3729 15.1167 25.5447 16.3798 25.8018C16.4078 25.8075 16.4363 25.8126 16.4647 25.8184C17.5706 26.0438 18.7609 26.167 19.9999 26.167ZM19.9999 25.167C18.8261 25.167 17.7024 25.0505 16.6639 24.8389C15.2962 24.5601 14.8195 24.4452 14.3387 23.8271C13.8554 23.2057 13.8329 22.5076 13.8329 20.6426V19.3574C13.8329 17.4924 13.8554 16.7943 14.3387 16.1729C14.8195 15.5548 15.2962 15.4399 16.6639 15.1611C17.7024 14.9495 18.8261 14.833 19.9999 14.833C21.1737 14.833 22.2974 14.9494 23.3358 15.1611C24.7037 15.44 25.1803 15.5549 25.661 16.1729C26.1443 16.7943 26.1669 17.4924 26.1669 19.3574V20.6426C26.1669 22.5076 26.1443 23.2057 25.661 23.8271C25.1803 24.4451 24.7037 24.56 23.3358 24.8389C22.2974 25.0506 21.1737 25.167 19.9999 25.167ZM18.6552 22.791C19.0474 22.8938 19.4328 22.7952 19.8085 22.6396C20.1785 22.4864 20.628 22.2384 21.1776 21.9355L21.2323 21.9053C21.735 21.6283 22.1502 21.3995 22.4491 21.1875C22.7486 20.975 23.0328 20.7111 23.1268 20.3271C23.1795 20.1118 23.1795 19.8882 23.1268 19.6729C23.0328 19.2889 22.7486 19.025 22.4491 18.8125C22.1502 18.6005 21.735 18.3717 21.2323 18.0947L21.1776 18.0645C20.628 17.7616 20.1785 17.5136 19.8085 17.3604C19.4328 17.2048 19.0474 17.1062 18.6552 17.209C18.4324 17.2674 18.2235 17.3712 18.0448 17.5156C17.7167 17.7808 17.6006 18.1603 17.5497 18.543C17.5005 18.9133 17.4999 19.3933 17.4999 19.9648V20.0361C17.4999 20.6075 17.5005 21.0868 17.5497 21.457C17.6006 21.8397 17.7167 22.2191 18.0448 22.4844C18.2235 22.6288 18.4324 22.7326 18.6552 22.791ZM18.9091 21.8242C18.8178 21.8003 18.7369 21.7589 18.6727 21.707C18.6422 21.6823 18.5796 21.6158 18.5409 21.3252C18.5015 21.0287 18.4999 20.6166 18.4999 20C18.4999 19.3834 18.5015 18.9713 18.5409 18.6748C18.5796 18.3842 18.6422 18.3177 18.6727 18.293C18.7369 18.2411 18.8178 18.1997 18.9091 18.1758C18.9806 18.1572 19.1137 18.155 19.4257 18.2842C19.738 18.4135 20.1386 18.6338 20.7216 18.9551C21.2591 19.2513 21.6242 19.4528 21.871 19.6279C22.122 19.8061 22.1512 19.89 22.1561 19.9102C22.1706 19.9694 22.1706 20.0306 22.1561 20.0898C22.1512 20.1099 22.1222 20.1938 21.871 20.3721C21.6242 20.5472 21.2591 20.7487 20.7216 21.0449C20.1386 21.3662 19.738 21.5865 19.4257 21.7158C19.1137 21.845 18.9806 21.8429 18.9091 21.8242Z" fill="white"/>
</svg>
